<svg width="100" height="57" viewBox="0 0 100 57" fill="none" xmlns="http://www.w3.org/2000/svg">
<path d="M71.7339 0V28.2587H99.9998V0H71.7339ZM77.3894 5.65114H94.3502V22.6075H83.045V16.9564H77.3924V5.65114H77.3894Z" fill="#FFA400"/>
<path d="M7.60735 16.9568H0V24.4592H7.60735V16.9568Z" fill="white"/>
<path d="M7.60769 28.2773H0.0473633V56.5389H7.60769V28.2773Z" fill="white"/>
<path d="M24.125 27.9397C32.7582 27.9397 38.5901 33.2176 38.6989 41.5195C38.6989 42.3453 38.6431 43.2798 38.4784 44.1585H17.9639V44.3789C18.2931 48.449 20.6035 50.9763 24.6189 50.9763C27.7523 50.9763 29.954 49.601 30.6124 46.962H38.258C37.3791 52.4604 32.5936 56.8596 25.1685 56.8596C15.6006 56.8596 9.88037 51.1967 9.88037 42.454C9.88037 33.6026 15.6006 27.9397 24.125 27.9397ZM30.8887 39.1009C30.3391 35.6362 27.9728 33.7113 24.4542 33.7113C21.1003 33.7113 18.5694 35.7449 18.1285 39.1009H30.8887Z" fill="white"/>
<path d="M36.8805 28.2773H45.7342L51.6191 36.635L57.6127 28.2773H65.9167L55.9636 42.1334L66.4693 56.5389H57.6156L51.1252 47.6875L44.6907 56.5389H36.3867L46.8924 42.1334L36.8805 28.2773Z" fill="white"/>
</svg>
